<?xml version="1.0" standalone="no"?>
<!DOCTYPE svg PUBLIC "-//W3C//DTD SVG 20010904//EN"
 "http://www.w3.org/TR/2001/REC-SVG-20010904/DTD/svg10.dtd">
<svg version="1.0" xmlns="http://www.w3.org/2000/svg"
 width="450.000000pt" height="450.000000pt" viewBox="0 0 450.000000 450.000000"
 preserveAspectRatio="xMidYMid meet">
<metadata>
Created by potrace 1.11, written by Peter Selinger 2001-2013
</metadata>
<g transform="translate(0.000000,450.000000) scale(0.100000,-0.100000)"
fill="#000000" stroke="none">
<path d="M2068 4494 c-2 -2 -33 -6 -68 -9 -36 -3 -78 -8 -95 -11 -61 -10 -181
-36 -220 -46 -22 -7 -42 -12 -45 -13 -4 -1 -85 -26 -130 -40 -49 -16 -205 -83
-275 -118 -74 -38 -284 -163 -295 -177 -3 -3 -23 -19 -46 -35 -129 -94 -351
-314 -423 -419 -8 -11 -17 -23 -20 -26 -22 -20 -141 -203 -141 -217 0 -7 -4
-13 -8 -13 -7 0 -108 -202 -142 -285 -38 -92 -95 -285 -115 -390 -5 -22 -10
-47 -11 -55 -4 -18 -12 -72 -23 -165 -10 -74 -8 -466 2 -482 3 -5 8 -36 12
-69 3 -32 7 -66 10 -74 2 -8 7 -28 10 -45 7 -40 35 -156 50 -205 15 -50 49
-144 72 -200 54 -129 182 -371 213 -400 3 -3 22 -30 42 -60 21 -31 45 -64 55
-75 10 -11 36 -43 58 -70 49 -61 193 -206 260 -260 27 -22 54 -46 61 -53 7 -6
17 -12 22 -12 6 0 12 -3 14 -8 5 -12 85 -72 95 -72 6 0 18 -9 28 -20 10 -11
24 -20 31 -20 7 0 14 -3 16 -7 12 -29 323 -175 481 -227 251 -83 429 -111 707
-111 170 0 300 10 400 30 14 3 34 7 45 9 16 4 85 20 165 41 111 27 394 141
431 172 8 7 19 13 24 13 10 0 147 80 155 91 3 3 16 12 29 19 14 7 30 17 35 21
6 5 45 35 86 66 96 73 127 101 219 194 142 142 182 191 302 370 51 76 150 266
192 369 69 166 138 435 155 602 14 144 7 489 -13 583 -3 11 -6 34 -9 50 -37
256 -178 611 -337 851 -40 60 -77 114 -83 119 -6 6 -30 35 -53 66 -63 86 -300
319 -323 319 -5 0 -10 4 -10 8 0 9 -195 152 -206 152 -4 0 -22 11 -40 25 -18
14 -39 25 -47 25 -9 0 -17 4 -19 9 -4 11 -140 79 -248 124 -150 62 -363 120
-520 143 -25 3 -56 8 -70 10 -32 6 -437 13 -442 8z"/>
</g>
</svg>
